<?xml version="1.0" encoding="UTF-8" standalone="no"?>
<!-- Created with Inkscape (http://www.inkscape.org/) -->

<svg
   width="39.68755mm"
   height="35.366787mm"
   viewBox="0 0 39.68755 35.366787"
   version="1.1"
   id="svg1"
   xml:space="preserve"
   inkscape:export-filename="logo_White.svg"
   inkscape:export-xdpi="96"
   inkscape:export-ydpi="96"
   xmlns:inkscape="http://www.inkscape.org/namespaces/inkscape"
   xmlns:sodipodi="http://sodipodi.sourceforge.net/DTD/sodipodi-0.dtd"
   xmlns="http://www.w3.org/2000/svg"
   xmlns:svg="http://www.w3.org/2000/svg"><sodipodi:namedview
     id="namedview1"
     pagecolor="#ffffff"
     bordercolor="#000000"
     borderopacity="0.25"
     inkscape:showpageshadow="2"
     inkscape:pageopacity="0.0"
     inkscape:pagecheckerboard="0"
     inkscape:deskcolor="#d1d1d1"
     inkscape:document-units="mm" /><defs
     id="defs1" /><g
     inkscape:label="Capa 1"
     inkscape:groupmode="layer"
     id="layer1"
     transform="translate(-97.935441,-154.26045)"><path
       style="fill:#ffffff;stroke-width:0.604381"
       d="m 97.935441,174.46213 v -15.16492 h 2.655899 2.65589 l 0.007,12.50211 0.007,12.50213 13.82321,0.007 13.8232,0.007 v 2.65589 2.6559 H 114.42145 97.935441 Z m 7.652919,7.34178 c 0.0302,-0.0796 1.669,-4.56613 3.64175,-9.97018 l 3.58683,-9.82555 h 2.84092 2.84092 l 0.5314,1.23851 c 0.29228,0.68118 1.70207,3.96635 3.13288,7.30036 l 2.60146,6.06184 h -2.52818 -2.52819 l -0.11127,-0.35779 c -0.0612,-0.19679 -0.16135,-0.5188 -0.22255,-0.71559 l -0.11128,-0.35779 h -3.35277 -3.35278 l -0.10239,0.3922 c -0.0563,0.2157 -0.45124,1.73598 -0.87763,3.37839 l -0.77525,2.9862 -2.6344,0.007 -2.63439,0.007 z m 12.57705,-10.30733 c 0.002,-0.0489 -2.2995,-5.53539 -2.31459,-5.51747 -0.0202,0.024 -2.2,5.49266 -2.2,5.51935 0,0.0258 4.51348,0.0239 4.51459,-0.002 z m 6.72431,9.9494 c 0.009,-0.0341 0.35737,-1.19516 0.77502,-2.58024 l 0.75936,-2.51831 2.08933,-8.42058 c 1.14914,-4.63132 2.08668,-8.42309 2.08343,-8.42615 -0.003,-0.003 -4.30975,0.0114 -9.56999,0.032 -5.26025,0.0207 -10.58277,0.0381 -11.82782,0.0386 l -2.26373,0.001 v -2.65592 -2.65593 h 15.16678 c 14.43202,0 15.16605,0.002 15.15153,0.0482 -0.0332,0.10477 -5.30212,21.7702 -5.31803,21.86724 l -0.017,0.10377 0.38205,-0.0145 c 0.21012,-0.008 1.27997,-0.0267 2.37743,-0.0417 1.09746,-0.0149 2.20903,-0.0345 2.47015,-0.0436 l 0.47476,-0.0165 v 2.6722 2.67219 h -6.37445 -6.37446 z"
       id="path1" /></g></svg>
